<?xml version="1.0" encoding="UTF-8"?><svg id="b" xmlns="http://www.w3.org/2000/svg" viewBox="0 0 144 144"><defs><style>.d{stroke:#000;stroke-miterlimit:10;stroke-width:3px;}.d,.e{fill:red;}.f{fill:none;}</style></defs><g id="c"><rect class="f" width="144" height="144"/><g><circle class="e" cx="72" cy="72" r="34.5"/><path d="M72,39c18.2,0,33,14.8,33,33s-14.8,33-33,33-33-14.8-33-33,14.8-33,33-33m0-3c-19.88,0-36,16.12-36,36s16.12,36,36,36,36-16.12,36-36-16.12-36-36-36h0Z"/></g><line class="d" x1="54" y1="54" x2="63" y2="63"/><line class="d" x1="81" y1="63" x2="90" y2="54"/><path class="d" d="M54,90c9-9,27-9,36,0"/><circle cx="58.5" cy="67.5" r="4.5"/><circle cx="85.5" cy="67.5" r="4.5"/></g></svg>