<?xml version="1.0" encoding="UTF-8"?><svg id="b" xmlns="http://www.w3.org/2000/svg" viewBox="0 0 144 144"><defs><style>.d{fill:aqua;}</style></defs><g id="c"><rect class="d" width="144" height="144"/><g><path d="M62.01,71.19c-1.05,.38-3.13,1-5.59,1-2.75,0-5.02-.7-6.8-2.4-1.57-1.51-2.54-3.94-2.54-6.78,.03-5.43,3.75-9.39,9.85-9.39,2.11,0,3.75,.46,4.53,.84l-.57,1.92c-.97-.43-2.19-.78-4.02-.78-4.43,0-7.31,2.75-7.31,7.31s2.78,7.34,7.02,7.34c1.54,0,2.59-.22,3.13-.49v-5.43h-3.7v-1.89h5.99v8.75Z"/><path d="M77.48,65.36c0,4.83-3.35,6.94-6.51,6.94-3.54,0-6.26-2.59-6.26-6.72,0-4.37,2.86-6.94,6.48-6.94s6.29,2.73,6.29,6.72Zm-10.37,.13c0,2.86,1.65,5.02,3.97,5.02s3.97-2.13,3.97-5.07c0-2.21-1.11-5.02-3.91-5.02s-4.02,2.59-4.02,5.07Z"/><path d="M87.71,72l-.19-1.65h-.08c-.73,1.03-2.13,1.94-4,1.94-2.65,0-3.99-1.86-3.99-3.75,0-3.16,2.81-4.89,7.85-4.86v-.27c0-1.08-.3-3.02-2.97-3.02-1.21,0-2.48,.38-3.4,.97l-.54-1.57c1.08-.7,2.65-1.16,4.29-1.16,4,0,4.97,2.73,4.97,5.34v4.89c0,1.13,.05,2.24,.22,3.13h-2.16Zm-.35-6.67c-2.59-.05-5.53,.4-5.53,2.94,0,1.54,1.03,2.27,2.24,2.27,1.7,0,2.78-1.08,3.16-2.19,.08-.24,.13-.51,.13-.76v-2.27Z"/><path d="M93.49,52.83h2.38v19.17h-2.38v-19.17Z"/></g></g></svg>