<?xml version="1.0" encoding="UTF-8"?><svg id="b" xmlns="http://www.w3.org/2000/svg" viewBox="0 0 144 144"><defs><style>.d{fill:lime;}</style></defs><g id="c"><rect class="d" width="144" height="144"/><g><path d="M35.56,69.14c1.05,.65,2.59,1.19,4.21,1.19,2.4,0,3.81-1.27,3.81-3.1,0-1.7-.97-2.67-3.43-3.62-2.97-1.05-4.8-2.59-4.8-5.16,0-2.83,2.35-4.94,5.88-4.94,1.86,0,3.21,.43,4.02,.89l-.65,1.92c-.59-.32-1.81-.86-3.46-.86-2.48,0-3.43,1.48-3.43,2.73,0,1.7,1.11,2.54,3.62,3.51,3.08,1.19,4.64,2.67,4.64,5.34,0,2.81-2.08,5.24-6.37,5.24-1.75,0-3.67-.51-4.64-1.16l.59-1.97Z"/><path d="M49.12,63.2c0-1.67-.05-3.02-.11-4.26h2.13l.11,2.24h.05c.97-1.59,2.51-2.54,4.64-2.54,3.16,0,5.53,2.67,5.53,6.64,0,4.7-2.86,7.02-5.94,7.02-1.73,0-3.24-.76-4.02-2.05h-.05v7.1h-2.35v-14.14Zm2.35,3.48c0,.35,.05,.67,.11,.97,.43,1.65,1.86,2.78,3.56,2.78,2.51,0,3.97-2.05,3.97-5.05,0-2.62-1.38-4.86-3.89-4.86-1.62,0-3.13,1.16-3.59,2.94-.08,.3-.16,.65-.16,.97v2.24Z"/><path d="M71.71,72l-.19-1.65h-.08c-.73,1.03-2.13,1.94-4,1.94-2.65,0-3.99-1.86-3.99-3.75,0-3.16,2.81-4.89,7.85-4.86v-.27c0-1.08-.3-3.02-2.97-3.02-1.21,0-2.48,.38-3.4,.97l-.54-1.57c1.08-.7,2.65-1.16,4.29-1.16,4,0,4.97,2.73,4.97,5.34v4.89c0,1.13,.05,2.24,.22,3.13h-2.16Zm-.35-6.67c-2.59-.05-5.53,.4-5.53,2.94,0,1.54,1.03,2.27,2.24,2.27,1.7,0,2.78-1.08,3.16-2.19,.08-.24,.13-.51,.13-.76v-2.27Z"/><path d="M78.22,58.94l1.73,6.64c.38,1.46,.73,2.81,.97,4.16h.08c.3-1.32,.73-2.73,1.16-4.13l2.13-6.67h2l2.02,6.53c.49,1.57,.86,2.94,1.16,4.26h.08c.22-1.32,.57-2.7,1-4.24l1.86-6.56h2.35l-4.21,13.06h-2.16l-2-6.24c-.46-1.46-.84-2.75-1.16-4.29h-.05c-.32,1.57-.73,2.92-1.19,4.32l-2.11,6.21h-2.16l-3.94-13.06h2.43Z"/><path d="M97.15,62.47c0-1.35-.03-2.46-.11-3.54h2.11l.14,2.16h.05c.65-1.24,2.16-2.46,4.32-2.46,1.81,0,4.62,1.08,4.62,5.56v7.8h-2.38v-7.53c0-2.11-.78-3.86-3.02-3.86-1.57,0-2.78,1.11-3.19,2.43-.11,.3-.16,.7-.16,1.11v7.85h-2.38v-9.53Z"/></g></g></svg>